<?xml version="1.0" encoding="utf-8"?>
<!-- Generator: Adobe Illustrator 19.1.0, SVG Export Plug-In . SVG Version: 6.00 Build 0)  -->
<svg version="1.1" id="Capa_1" xmlns="http://www.w3.org/2000/svg" xmlns:xlink="http://www.w3.org/1999/xlink" x="0px" y="0px"
	 viewBox="-199 111.8 391.2 391.2" style="enable-background:new -199 111.8 391.2 391.2;" xml:space="preserve">
<style type="text/css">
	.st0{fill:#46A6B5;}
	.st1{fill:#F1EDEA;}
	.st2{fill:#49ADBD;}
	.st3{fill:#49ACBC;}
	.st4{fill:none;}
	.st5{fill:#F0ECE9;}
	.st6{fill:#FFFFFF;}
	.st7{fill:#351F10;}
	.st8{fill:#4D4E4E;}
	.st9{opacity:0.22;fill:#333333;enable-background:new    ;}
	.st10{fill:#333333;}
	.st11{fill:#B2E0E5;}
</style>
<title>ico-galeria</title>
<g>
	<circle class="st0" cx="-3.4" cy="307.4" r="195.6"/>
	<path class="st1" d="M-115.9,192h225c5.1,0,9.2,4.1,9.2,9.2v212.2c0,5.1-4.1,9.2-9.2,9.2h-225c-5.1,0-9.2-4.1-9.2-9.2V201.3
		C-125.1,196.2-121,192-115.9,192z"/>
	<path class="st2" d="M-99.2,207.1h194c5.5,0,9.9,4.4,9.9,9.9v144.4c0,5.5-4.4,9.9-9.9,9.9h-194c-5.5,0-9.9-4.4-9.9-9.9V217
		C-109.1,211.5-104.6,207.1-99.2,207.1z"/>
	<path class="st3" d="M-96.9,365.5l53.9-60.2c0.5-0.5,1.2-0.9,1.9-0.9c0.7,0,1.5,0.3,2,0.8l13.1,12.9c18.3-12.9,38.1-27.1,56.6-40.6
		c-7.5-12.3-3.7-28.4,8.6-35.9c10.8-6.6,24.8-4.5,33.2,4.9c19.4-14.7,32.3-25.2,32.3-26.9c0-6.6-5.3-11.9-11.9-11.9c0,0,0,0,0,0
		h-190c-6.6,0-11.9,5.3-11.9,11.9c0,0,0,0,0,0v134.1c0,6.6,5.3,11.9,11.9,11.9c0,0,0,0,0,0h0.2C-96.9,365.6-96.9,365.5-96.9,365.5z"
		/>
	<rect x="-109.1" y="207.1" class="st4" width="213.9" height="164.2"/>
	<circle class="st5" cx="-50" cy="268.5" r="22.1"/>
	<path class="st6" d="M78.8,255.2c1-0.7,4.3-3.3,2.5-4.7c-1.4-1.1-5,1.9-4.8,3.1c0-1.5-0.5-5-2.6-3.9c-1.5,0.8-0.8,4.9,0.1,6.1
		c-1.1-1.7-5.2-1.5-5.6,0.2c-0.6,3.1,4.2,3.2,6,2.1c-1.3,1.5-3.2,4-1.3,5.2c0.7,0.1,1.5,0.1,2.2,0c0.7-0.5,1.2-1.2,1.3-2.1
		c0.2,1.4,0.8,3,2.1,2.9c2.6-0.3,1.7-5.2,0.7-6.4c1.3,1.2,3.7,1,4-0.6C84.3,254.5,80.6,254,78.8,255.2z"/>
	<circle class="st5" cx="46.4" cy="275.8" r="22.1"/>
	<path class="st7" d="M57.2,255.9c2.4-2.8,12.5-16-5-19.2S38.5,250,39.4,252.9c-19.8,2.1-15.5,23.5-15.5,23.5s14.7,1.3,22.2-11.9
		c0,0,4.7,14.3,22.4,15.3C68.5,279.8,71.1,263,57.2,255.9z"/>
	<path class="st5" d="M59.1,300.4c-1-1-2.2-1.6-3.6-1.9c-5.7,2.5-12.2,2.5-18,0.1c-0.6-0.1-1.2,0-1.8,0.3c-0.5,0.3-0.9,0.6-1.3,1.1
		l-40,65.5l40.4-52.5l22-2.5l33.8,50L59.1,300.4z"/>
	<path class="st6" d="M38.9,345l-5.3-36.6c0,0,8.5-5.4,11.6-5.5c3.4-0.1,13,5.5,13,5.5L52.1,345L38.9,345L38.9,345z"/>
	<polygon class="st8" points="52.8,349.8 38.4,349.8 37.6,336.3 53.5,336.3 	"/>
	<path class="st9" d="M-99.1,207.1h194c5.5,0,9.9,4.4,9.9,9.9v144.4c0,5.5-4.4,9.9-9.9,9.9h-194c-5.5,0-9.9-4.4-9.9-9.9V217
		C-109,211.6-104.6,207.1-99.1,207.1z"/>
	<path class="st1" d="M14.2,288.5c1.4,0.8,1.9,2.5,1.1,3.9c-0.3,0.4-0.6,0.8-1.1,1.1L2,300.6l-12.2,7.1c-1.4,0.8-3.1,0.3-3.9-1.1
		c-0.3-0.4-0.4-0.9-0.4-1.4v-28.2c0-1.6,1.3-2.9,2.9-2.9c0.5,0,1,0.1,1.4,0.4L2,281.5L14.2,288.5z"/>
	<path class="st6" d="M89.8,371.3c-6.8-17.7-24-30.2-44.1-30.2S8.4,353.6,1.6,371.3H89.8z"/>
	<path class="st10" d="M-76.4,362.1l6.9,0.3l1.1,9h17.9c0.4-2.9,0.7-4.5,0.7-4.3c0,0.2,0,1.8-0.1,4.3h18.1l1.8-7.5l4.8,0.3
		l-4.9-36.3l30.9,26.9L-29,303.8l-39.7,0.5l-34,55.8l33.4-33.9L-76.4,362.1z"/>
	<polygon class="st11" points="-62.3,299.7 -47.9,346.6 -37.4,299.3 	"/>
	<path class="st8" d="M-61.4,299.5l-10.5,5.1c0,0,8,33,23.6,41.6L-61.4,299.5z"/>
	<path class="st8" d="M-40,296.4l-7.8,50.2c0,0,16.3-23.3,20.8-42.8L-40,296.4z"/>
	<polygon class="st6" points="-49.7,296.3 -63.6,289.2 -62.4,307 -49.6,299.7 -36.5,307.5 -36.4,289.8 	"/>
	<path class="st7" d="M-37.6,248.8c1-2.6-18.9-3.9-18.4-1.7c-19.8,1.6-16.2,16.2-16.2,16.2s24.9,0.6,32.4-9.5
		c0,0-5.5,11.4,12.2,12.2C-27.6,265.9-23.7,254.3-37.6,248.8z"/>
</g>
</svg>
