<svg xmlns="http://www.w3.org/2000/svg" xmlns:xlink="http://www.w3.org/1999/xlink" viewBox="0 0 480.14 480.14"><defs><style>.cls-1{fill:none;}.cls-2{clip-path:url(#clip-path);}.cls-3{fill:#48abbb;}.cls-4{fill:#f1edea;}</style><clipPath id="clip-path"><path class="cls-1" d="M450.18,224.17c0,106.39-86.24,192.62-192.63,192.62S64.93,330.56,64.93,224.17,151.16,31.55,257.55,31.55,450.18,117.79,450.18,224.17Z"/></clipPath></defs><title>login-ico</title><g id="Layer_2" data-name="Layer 2"><g id="Layer_1-2" data-name="Layer 1"><g class="cls-2"><circle class="cls-3" cx="240.07" cy="240.07" r="240.07"/><path class="cls-4" d="M367.62,345.23c-36.63-15.43-68.36-28.48-68.36-28.48V289.08c0-11.39,18.72-23.63,18.72-70.81,0-45.39-21.11-70.36-54.54-72.27v-.17c-.69,0-1.35.08-2,.08s-1.37-.08-2-.08V146c-33.46,1.91-54.54,26.88-54.54,72.27,0,47.18,18.72,59.41,18.72,70.81v27.66s-31.77,13-68.37,28.48-49.64,37.44-49.64,49.66v25.23H417.28V394.89C417.28,382.67,404.22,360.72,367.62,345.23Z"/></g></g></g></svg>