<svg xmlns="http://www.w3.org/2000/svg" viewBox="0 0 210 78.06"><defs><style>.cls-1{fill:#329c6c;}.cls-2{fill:#fff;}</style></defs><title>plus</title><g id="Layer_2" data-name="Layer 2"><g id="Layer_1-2" data-name="Layer 1"><rect class="cls-1" width="210" height="78.06" rx="2.75" ry="2.75"/><path class="cls-2" d="M56.74,43.49V39.9H61.8v-5h3.59v5h5.11v3.59H65.38v5.08H61.8V43.49Z"/><path class="cls-2" d="M84.75,43.28H81.4v5.92H77.28V28.87h7.47q7.23,0,7.23,7.05a7.52,7.52,0,0,1-1.84,5.45A7.17,7.17,0,0,1,84.75,43.28ZM81.4,39.75h3.32q3.08,0,3.08-3.83a4,4,0,0,0-.75-2.71,3,3,0,0,0-2.33-.82H81.4Z"/><path class="cls-2" d="M109.53,49.19H98V28.87h4.13V45.55h7.44Z"/><path class="cls-2" d="M118.94,42.41q0,3.56,3.62,3.56t3.62-3.56V28.87h4.12V42.32q0,3.74-1.93,5.49t-5.81,1.75q-3.88,0-5.81-1.75t-1.93-5.49V28.87h4.13Z"/><path class="cls-2" d="M143.87,32.1q-3.26,0-3.26,2.15a1.63,1.63,0,0,0,.81,1.46,20.94,20.94,0,0,0,3.78,1.46,10.44,10.44,0,0,1,4.17,2.17,5.11,5.11,0,0,1,1.2,3.72,6,6,0,0,1-1.94,4.84,7.6,7.6,0,0,1-5.08,1.64,28.33,28.33,0,0,1-5.71-.72l-1.08-.21.42-3.2a49.76,49.76,0,0,0,6.13.54q3.17,0,3.17-2.63a1.75,1.75,0,0,0-.73-1.49,10.37,10.37,0,0,0-2.91-1.17,11.87,11.87,0,0,1-4.89-2.35,5,5,0,0,1-1.42-3.78A5.49,5.49,0,0,1,138.37,30a7.88,7.88,0,0,1,5.08-1.49,33.77,33.77,0,0,1,5.62.6l1.08.21-.33,3.26Q145.6,32.1,143.87,32.1Z"/></g></g></svg>